<svg aria-hidden="true" width="800" height="220" viewBox="0 0 800 220" fill="none" xmlns="http://www.w3.org/2000/svg">
<path d="M403.845 63.7494V85.6405H436.352V101.11H403.845V134.239C403.845 145.914 409.154 152.335 419.371 152.335C424.408 152.335 430.02 150.584 436.208 148.395L439.086 161.821C434.769 164.448 425.559 167.659 416.493 167.659C400.248 167.659 387.584 157.297 387.584 135.114V101.11H372.906V85.6405H387.584V67.398L403.845 63.7494ZM704.447 53.5336V165.908H688.186V152.481C682.286 161.529 672.788 167.659 660.412 167.659C639.274 167.659 623.876 150.292 623.876 125.774C623.876 101.256 639.546 83.8892 660.268 83.8892C672.788 83.8892 682.286 90.1646 688.186 99.3589V53.5336H704.447ZM758.987 83.8892C781.724 83.8892 800 101.694 800 125.774C800 149.854 781.868 167.659 758.987 167.659C736.106 167.659 717.974 150 717.974 125.774C717.974 101.548 736.394 83.8892 758.987 83.8892ZM485.727 83.8892C511.199 83.8892 527.3 103.883 525.733 130.298H461.407C462.703 145.038 472.92 153.211 486.159 153.211C495.657 153.211 503.572 149.124 507.313 141.244H524.15C517.962 159.194 502.852 167.659 486.015 167.659C461.983 167.659 444.858 150.146 444.858 125.92C444.858 101.694 461.839 83.8892 485.727 83.8892ZM341.135 63.7494L380.117 165.908H362.849L352.631 138.471H308.9L298.683 165.908H281.414L320.413 63.7494H341.135ZM581.568 83.8892C599.396 83.8892 610.045 95.7104 610.045 115.266V165.908H593.8V118.623C593.8 106.218 588.46 99.6507 576.532 99.6507C562.573 99.6507 555.09 108.845 555.09 124.315V165.908H538.828V85.6405H555.09V98.9211C560.702 89.5809 569.192 83.8892 581.568 83.8892ZM758.987 99.6507C745.316 99.6507 734.379 110.304 734.379 125.774C734.379 141.244 745.172 151.897 758.987 151.897C772.802 151.897 783.595 141.244 783.595 125.774C783.595 110.304 772.658 99.6507 758.987 99.6507ZM663.866 99.6507C650.067 99.6507 640.265 110.304 640.265 125.774C640.265 141.244 650.195 151.897 663.866 151.897C677.681 151.897 688.186 141.098 688.186 125.774C688.186 110.45 677.665 99.6507 663.866 99.6507ZM330.774 80.0948L314.8 122.855H346.747L330.774 80.0948ZM485.727 98.1913C473.352 98.1913 465.005 106.072 462.271 116.872H508.321C505.874 105.926 498.103 98.1913 485.727 98.1913Z" fill="#4B5563" />
<path d="M153 46.0153H63V136.006H153V46.0153Z" fill="white" />
<path d="M220.951 25.8441V177.983L179.578 143.787C174.766 139.75 168.239 136.009 161.994 136.009H151.996V73.9983C151.996 59.7121 139.89 47.0176 125.793 47.0176L63 46.9952V26.5196C63 12.2335 75.0922 -1.14429e-05 89.2027 -1.14429e-05L196.127 0.0223709C210.238 0.0223709 220.951 11.558 220.951 25.8441Z" fill="#67E8F9" />
<path d="M152 153.125C152 167.402 141.388 178.249 127.176 178.249H57.9212C51.4215 178.249 44.8922 181.448 39.9732 185.715L0 220V72.1413C0 57.8642 11.9906 47.0175 26.2027 47.0175H63L62.9994 109.489C62.9994 123.766 75.4146 136.008 89.6403 136.008H152C152 137.657 152 143.607 152 153.125Z" fill="#2563EB" />
</svg>
