<svg width="170" height="40" viewBox="0 0 170 40" fill="current-color" xmlns="http://www.w3.org/2000/svg"><path d="M130.501 15.9149V14.0879C132.866 13.1128 138.985 11.8264 141.298 11.8264C141.611 12.0413 141.924 12.2563 142.237 12.4712L137.906 35.7646H141.556V37.5915C141.104 37.9141 140.574 38.2186 139.965 38.5051C139.357 38.7918 138.714 39.0426 138.036 39.2576C137.358 39.4725 136.671 39.6427 135.976 39.768C135.281 39.8934 134.621 39.956 133.995 39.956C132.674 39.956 131.761 39.6963 131.257 39.1769C130.753 38.6575 130.501 38.0932 130.501 37.4842C130.501 36.7676 130.553 36.0691 130.657 35.3884C130.762 34.7076 130.901 33.9553 131.075 33.1313L134.621 16.4724L130.501 15.9149ZM138.331 0C140.493 0 142.246 1.76682 142.246 3.94662C142.246 6.1263 140.493 7.89313 138.331 7.89313C136.169 7.89313 134.416 6.1263 134.416 3.94662C134.416 1.76682 136.169 0 138.331 0ZM161.761 24.157C162.004 23.0464 162.222 22.0612 162.413 21.2014C162.604 20.3415 162.7 19.4459 162.7 18.5145C162.7 17.9054 162.569 17.3769 162.309 16.9291C162.048 16.4813 161.587 16.2574 160.927 16.2574C160.266 16.2574 159.58 16.5172 158.867 17.0366C158.154 17.556 157.459 18.2011 156.781 18.9711C156.103 19.7413 155.478 20.5922 154.904 21.5238C154.33 22.4554 153.87 23.315 153.522 24.1034L150.393 39.4725H143.197L147.682 16.4186L143.751 15.796L143.856 13.9688C146.415 12.9487 152.031 12.0851 154.668 11.8571L155.711 12.5019L154.044 20.4489H154.304C154.93 19.2667 155.66 18.1563 156.494 17.1172C157.329 16.0782 158.215 15.1825 159.154 14.4302C160.092 13.6779 161.083 13.0778 162.126 12.63C163.169 12.1822 164.229 11.9583 165.307 11.9583C166.767 11.9583 167.914 12.4421 168.749 13.4091C169.583 14.3766 170 15.6662 170 17.2783C170 18.1025 169.913 19.0427 169.739 20.0997C169.565 21.1566 169.357 22.2045 169.114 23.2434L166.246 35.7646H170V37.5915C169.652 37.8782 169.192 38.1647 168.618 38.4514C168.045 38.738 167.419 38.9888 166.741 39.2037C166.063 39.4187 165.359 39.5978 164.629 39.7411C163.899 39.8845 163.204 39.956 162.543 39.956C161.361 39.956 160.501 39.7232 159.962 39.2576C159.423 38.7918 159.154 38.2544 159.154 37.6453C159.154 36.893 159.241 36.0869 159.414 35.2271C159.588 34.3673 159.762 33.5434 159.936 32.7552L161.761 24.157ZM19.0525 34.2142C16.0318 39.3781 7.51575 42.2269 2.43808 37.0524C0.812649 35.3964 0 33.0883 0 30.1285C0 27.662 0.375878 25.3186 1.12731 23.0987C1.87874 20.8789 2.93615 18.9321 4.29931 17.2582C5.66265 15.5846 7.3142 14.2629 9.25412 13.2942C11.1939 12.3251 13.353 11.8201 15.7294 11.8405C26.2521 11.9314 21.5527 20.4331 17.367 17.3807C18.1903 14.3631 13.433 13.4033 10.1715 18.6324C9.4028 19.848 8.77347 21.3107 8.28413 23.0195C7.79485 24.7284 7.54999 26.6577 7.54999 28.8072C7.54999 37.122 13.6177 36.6925 18.2204 32.5159L19.0525 34.2142ZM20.2577 29.0374C20.2577 27.1027 20.5708 25.1235 21.1965 23.0992C21.822 21.0752 22.7781 19.23 24.0645 17.5641C25.3506 15.8983 26.9759 14.528 28.9399 13.4533C30.9042 12.3784 33.2072 11.841 35.8491 11.841C38.978 11.841 41.429 12.7189 43.2016 14.4742C44.9744 16.2295 45.861 18.8449 45.861 22.32C45.861 24.6844 45.5132 26.9327 44.8182 29.0642C44.123 31.1956 43.1146 33.077 41.7937 34.7066C40.473 36.3367 38.865 37.6265 36.9703 38.5758C35.0758 39.5253 32.9117 40 30.4782 40C29.0181 40 27.6621 39.776 26.4109 39.3283C25.1595 38.8807 24.0729 38.1998 23.1519 37.2862C22.2306 36.3727 21.5178 35.2349 21.0138 33.8737C20.5101 32.5126 20.2577 30.9001 20.2577 29.0374ZM34.9627 14.9041C33.5721 14.9041 32.4163 15.4416 31.4951 16.5162C30.5739 17.5909 29.8261 18.9434 29.2528 20.5735C28.6793 22.2033 28.2707 23.968 28.0274 25.8667C27.784 27.7655 27.6624 29.521 27.6624 31.1332C27.6624 32.9603 28.0016 34.3844 28.6792 35.4053C29.3571 36.4262 30.2871 36.9369 31.469 36.9369C32.4771 36.9369 33.4071 36.498 34.2588 35.6202C35.1105 34.7425 35.8493 33.5602 36.4748 32.0736C37.1005 30.5868 37.5875 28.885 37.935 26.9684C38.2826 25.0518 38.4564 23.0544 38.4564 20.9765C38.4564 19.0061 38.1523 17.5015 37.5439 16.4625C36.9355 15.4235 36.0751 14.9041 34.9627 14.9041ZM77.245 23.2337C77.4331 22.4128 77.6101 21.5228 77.8187 20.5735C78.0273 19.624 78.1315 18.8807 78.1315 18.3434C78.1315 17.6626 78.0184 17.1251 77.7926 16.7313C77.5668 16.3373 77.1583 16.1401 76.5671 16.1401C75.9762 16.1401 75.3677 16.3643 74.7421 16.8118C74.1166 17.2594 73.508 17.8508 72.9171 18.5852C72.326 19.3197 71.7612 20.1525 71.2223 21.084C70.6834 22.0154 70.0152 22.8998 69.7883 23.9321L66.3989 39.3552H59.4114L62.5924 24.2545C62.8267 23.142 63.0443 22.0693 63.2181 21.0304C63.3919 19.9914 63.4788 19.0239 63.4788 18.1284C63.4788 16.8029 62.992 16.1401 62.0187 16.1401C61.5321 16.1401 60.9756 16.3731 60.35 16.8387C59.7245 17.3042 59.0984 17.9046 58.4728 18.639C57.8473 19.3732 57.256 20.2065 56.6998 21.1377C56.1438 22.0691 55.5928 22.9867 55.3962 23.986L52.3719 39.3552H45.0715L49.7125 16.3012L46.2629 15.7799V13.9529C49.0025 12.8979 53.9134 12.0823 56.7521 11.841L57.847 12.4858L55.8134 20.3317H56.0219C56.5434 19.3643 57.178 18.3702 57.9253 17.3491C58.6728 16.3282 59.516 15.4145 60.4544 14.6086C61.3927 13.8027 62.4012 13.1394 63.4788 12.6203C64.5563 12.1009 65.6515 11.841 66.764 11.841C67.1811 11.841 67.6159 11.9127 68.0676 12.0559C68.5193 12.1991 68.9456 12.4592 69.3451 12.8352C69.7447 13.2112 70.0667 13.722 70.3097 14.3667C70.5529 15.0114 70.6748 15.8356 70.6748 16.8387C70.6748 17.3402 70.6311 17.9137 70.5446 18.5583C70.4577 19.203 70.3445 19.7942 70.2056 20.3317C70.7965 19.2211 71.4917 18.1462 72.2912 17.1073C73.0909 16.0683 73.9513 15.1638 74.8725 14.3935C75.7937 13.6233 76.7672 13.0051 77.7926 12.5397C78.8179 12.0741 79.887 11.841 80.9995 11.841C82.3206 11.841 83.3982 12.2709 84.2326 13.1307C85.0669 13.9904 85.484 15.1728 85.484 16.6774C85.484 17.8239 85.3797 18.9166 85.1711 19.9556C84.9626 20.9945 84.766 22.0942 84.4932 23.2337L81.5209 35.6473H85.1711V37.4743C84.8235 37.7608 84.3455 38.0476 83.7371 38.3341C83.1289 38.6206 82.4768 38.8716 81.7817 39.0864C81.0867 39.3012 80.3737 39.4807 79.6437 39.6239C78.9139 39.767 78.2358 39.8387 77.6101 39.8387C76.3586 39.8387 75.4894 39.5788 75.0029 39.0595C74.5164 38.5403 74.2728 37.9578 74.2728 37.313C74.2728 36.2741 74.5801 34.8579 75.0029 33.0139L77.245 23.2337ZM118.507 23.2337C118.695 22.4128 118.872 21.5228 119.08 20.5735C119.289 19.624 119.393 18.8807 119.393 18.3434C119.393 17.6626 119.28 17.1251 119.054 16.7313C118.829 16.3374 118.42 16.1401 117.829 16.1401C117.238 16.1401 116.629 16.3643 116.004 16.8118C115.378 17.2594 114.77 17.8508 114.179 18.5852C113.588 19.3197 113.023 20.1525 112.484 21.084C111.945 22.0154 111.277 22.8998 111.05 23.9321L107.661 39.3552H100.673L103.854 24.2545C104.089 23.142 104.306 22.0693 104.48 21.0304C104.654 19.9914 104.741 19.0239 104.741 18.1284C104.741 16.8029 104.254 16.1401 103.281 16.1401C102.794 16.1401 102.237 16.3731 101.612 16.8387C100.987 17.3042 100.36 17.9048 99.7347 18.639C99.1091 19.3732 98.5177 20.2065 97.9617 21.1377C97.4057 22.0689 96.8547 22.9867 96.6581 23.986L93.6338 39.3552H86.3334L90.9743 16.3012L87.596 15.7871V13.9601C90.1612 12.7331 95.0149 11.9837 98.014 11.841L99.109 12.4858L97.0752 20.3317H97.2838C97.8052 19.3643 98.4399 18.3702 99.1873 17.3491C99.9346 16.3282 100.778 15.4143 101.716 14.6086C102.655 13.8027 103.663 13.1394 104.741 12.6203C105.818 12.101 106.913 11.841 108.026 11.841C108.443 11.841 108.878 11.9129 109.329 12.0559C109.781 12.1991 110.207 12.4593 110.607 12.8352C111.006 13.2112 111.329 13.722 111.572 14.3667C111.815 15.0114 111.937 15.8356 111.937 16.8387C111.937 17.3402 111.893 17.9137 111.806 18.5583C111.72 19.203 111.606 19.7942 111.467 20.3317C112.058 19.2211 112.754 18.1462 113.553 17.1073C114.353 16.0683 115.213 15.1638 116.134 14.3935C117.056 13.6233 118.029 13.0051 119.054 12.5397C120.08 12.0741 121.149 11.841 122.261 11.841C123.582 11.841 124.66 12.2709 125.494 13.1307C126.329 13.9904 126.746 15.1728 126.746 16.6774C126.746 17.8239 126.642 18.9166 126.433 19.9556C126.224 20.9945 126.028 22.0942 125.755 23.2337L122.783 35.6473H126.433V37.4743C126.085 37.7608 125.607 38.0476 124.999 38.3341C124.391 38.6206 123.739 38.8716 123.044 39.0864C122.348 39.3012 121.636 39.4807 120.906 39.6239C120.176 39.767 119.498 39.8387 118.872 39.8387C117.62 39.8387 116.751 39.5788 116.265 39.0595C115.778 38.5403 115.535 37.9578 115.535 37.313C115.535 36.2741 115.842 34.8579 116.265 33.0139L118.507 23.2337Z" fill="white" /></svg>
